<svg width="133" height="119" viewBox="0 0 133 119" fill="none" xmlns="http://www.w3.org/2000/svg">
<g clip-path="url(#clip0_504_151184)">
<path d="M68.1015 0.258293L63.8064 1.3659L10.8906 15.0118L6.59551 16.1194C4.51074 16.6596 2.72536 18.0046 1.63104 19.8594C0.536733 21.7143 0.222864 23.9275 0.758298 26.0135L19.3826 98.2342C19.9227 100.319 21.2677 102.104 23.1226 103.199C24.9774 104.293 27.1906 104.607 29.2766 104.071L29.2877 104.069L90.7714 88.2131L90.7825 88.2103C92.8673 87.6702 94.6527 86.3251 95.747 84.4703C96.8413 82.6154 97.1552 80.4022 96.6197 78.3163L77.9955 6.09554C77.4553 4.01077 76.1103 2.22538 74.2555 1.13106C72.4006 0.0367388 70.1874 -0.277137 68.1015 0.258293Z" fill="#F2F2F2"/>
<path d="M68.6854 2.52241L63.5982 3.8343L12.2665 17.0717L7.17939 18.3836C5.69477 18.7682 4.42335 19.726 3.64406 21.0469C2.86477 22.3678 2.64126 23.9439 3.02255 25.4293L21.6468 97.65C22.0315 99.1347 22.9893 100.406 24.3102 101.185C25.631 101.965 27.2071 102.188 28.6926 101.807L28.7037 101.804L90.1874 85.9486L90.1986 85.9457C91.6832 85.5611 92.9546 84.6032 93.7338 83.2824C94.5131 81.9615 94.7366 80.3854 94.3553 78.9L75.7311 6.67925C75.3464 5.19466 74.3886 3.92325 73.0678 3.14396C71.7469 2.36467 70.1709 2.14114 68.6854 2.52241Z" fill="white"/>
<path d="M64.8443 25.9096L33.7411 33.9305C33.3937 34.0201 33.025 33.968 32.716 33.7857C32.407 33.6034 32.1831 33.3058 32.0935 32.9584C32.0039 32.611 32.056 32.2423 32.2383 31.9333C32.4206 31.6243 32.7182 31.4004 33.0656 31.3108L64.1687 23.2899C64.516 23.2007 64.8845 23.253 65.1932 23.4353C65.5019 23.6177 65.7256 23.9151 65.8152 24.2623C65.9047 24.6095 65.8527 24.978 65.6707 25.2869C65.4886 25.5958 65.1914 25.8198 64.8443 25.9096Z" fill="#F2F2F2"/>
<path d="M71.3872 28.9368L34.881 38.351C34.5336 38.4406 34.1649 38.3885 33.8559 38.2062C33.5469 38.0239 33.323 37.7264 33.2334 37.379C33.1438 37.0316 33.1959 36.6628 33.3782 36.3539C33.5605 36.0449 33.8581 35.821 34.2055 35.7314L70.7117 26.3171C71.0591 26.2276 71.4278 26.2796 71.7368 26.4619C72.0458 26.6442 72.2697 26.9418 72.3593 27.2892C72.4489 27.6366 72.3968 28.0053 72.2145 28.3143C72.0322 28.6233 71.7346 28.8472 71.3872 28.9368Z" fill="#F2F2F2"/>
<path d="M69.953 45.7209L38.8499 53.7418C38.6779 53.7861 38.4988 53.7962 38.3229 53.7713C38.147 53.7465 37.9778 53.6872 37.8248 53.597C37.6718 53.5067 37.5381 53.3872 37.4312 53.2452C37.3244 53.1033 37.2466 52.9417 37.2023 52.7697C37.1579 52.5977 37.1479 52.4186 37.1727 52.2427C37.1976 52.0668 37.2568 51.8976 37.3471 51.7446C37.4373 51.5916 37.5569 51.4579 37.6988 51.351C37.8407 51.2442 38.0023 51.1664 38.1743 51.1221L69.2775 43.1012C69.4495 43.0568 69.6285 43.0468 69.8044 43.0716C69.9803 43.0965 70.1496 43.1557 70.3026 43.246C70.4556 43.3363 70.5893 43.4558 70.6961 43.5977C70.8029 43.7397 70.8807 43.9012 70.9251 44.0733C70.9695 44.2453 70.9795 44.4243 70.9547 44.6002C70.9298 44.7761 70.8706 44.9454 70.7803 45.0984C70.69 45.2514 70.5705 45.3851 70.4286 45.4919C70.2866 45.5987 70.125 45.6765 69.953 45.7209Z" fill="#F2F2F2"/>
<path d="M76.4963 48.7481L39.99 58.1623C39.818 58.2067 39.639 58.2167 39.4631 58.1919C39.2872 58.167 39.1179 58.1078 38.9649 58.0175C38.8119 57.9273 38.6782 57.8077 38.5714 57.6658C38.4646 57.5239 38.3868 57.3623 38.3424 57.1903C38.2981 57.0183 38.288 56.8392 38.3129 56.6633C38.3377 56.4874 38.3969 56.3181 38.4872 56.1651C38.5775 56.0121 38.697 55.8784 38.8389 55.7716C38.9809 55.6648 39.1425 55.587 39.3145 55.5427L75.8207 46.1284C76.1681 46.0388 76.5368 46.0909 76.8458 46.2732C77.1548 46.4555 77.3787 46.7531 77.4683 47.1005C77.5579 47.4479 77.5058 47.8166 77.3235 48.1256C77.1412 48.4346 76.8436 48.6585 76.4963 48.7481Z" fill="#F2F2F2"/>
<path d="M75.062 65.5322L43.9589 73.553C43.6116 73.6423 43.243 73.5901 42.9342 73.4078C42.6254 73.2255 42.4017 72.928 42.3121 72.5807C42.2226 72.2335 42.2746 71.8649 42.4567 71.556C42.6388 71.2471 42.9361 71.0231 43.2833 70.9334L74.3864 62.9125C74.7338 62.8229 75.1026 62.875 75.4116 63.0573C75.7205 63.2396 75.9445 63.5371 76.034 63.8845C76.1236 64.2319 76.0715 64.6007 75.8892 64.9097C75.707 65.2187 75.4094 65.4426 75.062 65.5322Z" fill="#F2F2F2"/>
<path d="M81.6052 68.5593L45.099 77.9735C44.9269 78.018 44.7478 78.0282 44.5717 78.0035C44.3957 77.9787 44.2263 77.9195 44.0732 77.8293C43.9201 77.739 43.7863 77.6195 43.6794 77.4775C43.5725 77.3355 43.4946 77.1738 43.4502 77.0017C43.4058 76.8296 43.3958 76.6505 43.4207 76.4745C43.4456 76.2985 43.5049 76.1291 43.5953 75.9761C43.6857 75.823 43.8053 75.6893 43.9474 75.5825C44.0895 75.4758 44.2513 75.398 44.4234 75.3538L80.9296 65.9396C81.277 65.85 81.6458 65.9021 81.9548 66.0844C82.2638 66.2667 82.4877 66.5643 82.5773 66.9116C82.6669 67.259 82.6148 67.6278 82.4325 67.9368C82.2502 68.2458 81.9526 68.4697 81.6052 68.5593Z" fill="#F2F2F2"/>
<path d="M28.4312 42.1546L17.4241 44.9932C17.2576 45.0359 17.0808 45.0109 16.9327 44.9235C16.7846 44.8361 16.6772 44.6935 16.6341 44.5271L14.1074 34.7292C14.0647 34.5626 14.0897 34.3859 14.1771 34.2378C14.2645 34.0897 14.4071 33.9823 14.5735 33.9392L25.5806 31.1007C25.7472 31.0579 25.9239 31.083 26.072 31.1703C26.2201 31.2577 26.3275 31.4003 26.3707 31.5668L28.8973 41.3646C28.9401 41.5312 28.915 41.7079 28.8277 41.856C28.7403 42.0041 28.5977 42.1115 28.4312 42.1546Z" fill="#E6E6E6"/>
<path d="M33.5402 61.9659L22.5331 64.8044C22.3666 64.8471 22.1899 64.8221 22.0417 64.7347C21.8936 64.6473 21.7862 64.5047 21.7431 64.3383L19.2164 54.5404C19.1737 54.3739 19.1987 54.1971 19.2861 54.049C19.3735 53.9009 19.5161 53.7935 19.6825 53.7504L30.6896 50.9119C30.8562 50.8691 31.0329 50.8942 31.181 50.9816C31.3291 51.0689 31.4366 51.2115 31.4797 51.378L34.0063 61.1758C34.0491 61.3424 34.024 61.5191 33.9367 61.6672C33.8493 61.8153 33.7067 61.9227 33.5402 61.9659Z" fill="#E6E6E6"/>
<path d="M38.6491 81.7773L27.642 84.6158C27.4755 84.6585 27.2987 84.6335 27.1506 84.5461C27.0025 84.4587 26.8951 84.3162 26.852 84.1497L24.3253 74.3518C24.2826 74.1853 24.3076 74.0085 24.395 73.8604C24.4824 73.7123 24.625 73.6049 24.7914 73.5618L35.7985 70.7233C35.9651 70.6805 36.1418 70.7056 36.2899 70.793C36.438 70.8803 36.5454 71.0229 36.5886 71.1894L39.1152 80.9872C39.158 81.1538 39.1329 81.3305 39.0456 81.4786C38.9582 81.6267 38.8156 81.7341 38.6491 81.7773Z" fill="#E6E6E6"/>
<path d="M110.999 18.5652H47.4806C45.327 18.5676 43.2623 19.4242 41.7395 20.947C40.2167 22.4699 39.3601 24.5345 39.3577 26.6881V101.272C39.3601 103.425 40.2167 105.49 41.7395 107.013C43.2623 108.536 45.327 109.392 47.4806 109.395H110.999C113.152 109.392 115.217 108.536 116.74 107.013C118.263 105.49 119.119 103.425 119.122 101.272V26.6881C119.119 24.5345 118.263 22.4699 116.74 20.947C115.217 19.4242 113.152 18.5676 110.999 18.5652Z" fill="#E6E6E6"/>
<path d="M110.999 20.9037H47.4806C45.947 20.9055 44.4766 21.5155 43.3922 22.5999C42.3078 23.6843 41.6978 25.1547 41.696 26.6883V101.272C41.6978 102.805 42.3078 104.276 43.3922 105.36C44.4766 106.445 45.947 107.055 47.4806 107.056H110.999C112.532 107.055 114.003 106.445 115.087 105.36C116.172 104.276 116.782 102.805 116.783 101.272V26.6883C116.782 25.1547 116.172 23.6844 115.087 22.5999C114.003 21.5155 112.532 20.9055 110.999 20.9037Z" fill="white"/>
<path d="M117.672 118.469C125.861 118.469 132.5 111.83 132.5 103.641C132.5 95.4518 125.861 88.813 117.672 88.813C109.483 88.813 102.844 95.4518 102.844 103.641C102.844 111.83 109.483 118.469 117.672 118.469Z" fill="#70B6F6"/>
<path d="M124.764 101.707H119.606V96.5492C119.606 96.0363 119.402 95.5443 119.039 95.1816C118.677 94.8189 118.185 94.6151 117.672 94.6151C117.159 94.6151 116.667 94.8189 116.304 95.1816C115.941 95.5443 115.738 96.0363 115.738 96.5492V101.707H110.58C110.067 101.707 109.575 101.911 109.212 102.273C108.85 102.636 108.646 103.128 108.646 103.641C108.646 104.154 108.85 104.646 109.212 105.009C109.575 105.371 110.067 105.575 110.58 105.575H115.738V110.733C115.738 111.246 115.941 111.738 116.304 112.1C116.667 112.463 117.159 112.667 117.672 112.667C118.185 112.667 118.677 112.463 119.039 112.1C119.402 111.738 119.606 111.246 119.606 110.733V105.575H124.764C125.276 105.575 125.768 105.371 126.131 105.009C126.494 104.646 126.698 104.154 126.698 103.641C126.698 103.128 126.494 102.636 126.131 102.273C125.768 101.911 125.276 101.707 124.764 101.707Z" fill="white"/>
<path d="M101.439 61.8871H69.3187C69.1409 61.8873 68.9649 61.8525 68.8006 61.7846C68.6363 61.7167 68.487 61.6171 68.3612 61.4915C68.2354 61.3659 68.1357 61.2167 68.0676 61.0525C67.9995 60.8882 67.9645 60.7122 67.9645 60.5345C67.9645 60.3567 67.9995 60.1807 68.0676 60.0164C68.1357 59.8522 68.2354 59.7031 68.3612 59.5774C68.487 59.4518 68.6363 59.3522 68.8006 59.2843C68.9649 59.2164 69.1409 59.1816 69.3187 59.1818H101.439C101.798 59.1822 102.142 59.3249 102.395 59.5785C102.648 59.8321 102.791 60.176 102.791 60.5345C102.791 60.8929 102.648 61.2368 102.395 61.4904C102.142 61.7441 101.798 61.8867 101.439 61.8871Z" fill="#E6E6E6"/>
<path d="M107.019 66.4524H69.3187C69.1409 66.4526 68.9649 66.4178 68.8006 66.3499C68.6363 66.282 68.487 66.1824 68.3612 66.0568C68.2354 65.9312 68.1357 65.782 68.0676 65.6178C67.9995 65.4535 67.9645 65.2775 67.9645 65.0998C67.9645 64.922 67.9995 64.746 68.0676 64.5818C68.1357 64.4175 68.2354 64.2684 68.3612 64.1427C68.487 64.0171 68.6363 63.9175 68.8006 63.8496C68.9649 63.7817 69.1409 63.7469 69.3187 63.7471H107.019C107.378 63.7471 107.722 63.8896 107.976 64.1433C108.229 64.3969 108.372 64.741 108.372 65.0998C108.372 65.4585 108.229 65.8026 107.976 66.0563C107.722 66.3099 107.378 66.4524 107.019 66.4524Z" fill="#E6E6E6"/>
<path d="M101.439 82.3466H69.3187C69.1409 82.3468 68.9649 82.312 68.8006 82.2441C68.6363 82.1762 68.487 82.0766 68.3612 81.951C68.2354 81.8253 68.1357 81.6761 68.0676 81.5119C67.9995 81.3477 67.9645 81.1717 67.9645 80.9939C67.9645 80.8162 67.9995 80.6401 68.0676 80.4759C68.1357 80.3117 68.2354 80.1625 68.3612 80.0369C68.487 79.9113 68.6363 79.8117 68.8006 79.7438C68.9649 79.6759 69.1409 79.641 69.3187 79.6412H101.439C101.798 79.6412 102.142 79.7838 102.396 80.0374C102.65 80.2911 102.792 80.6352 102.792 80.9939C102.792 81.3527 102.65 81.6967 102.396 81.9504C102.142 82.2041 101.798 82.3466 101.439 82.3466Z" fill="#E6E6E6"/>
<path d="M107.019 86.9119H69.3187C69.1409 86.9121 68.9649 86.8773 68.8006 86.8094C68.6363 86.7415 68.487 86.6419 68.3612 86.5163C68.2354 86.3906 68.1357 86.2415 68.0676 86.0772C67.9995 85.913 67.9645 85.737 67.9645 85.5592C67.9645 85.3815 67.9995 85.2054 68.0676 85.0412C68.1357 84.877 68.2354 84.7278 68.3612 84.6022C68.487 84.4766 68.6363 84.377 68.8006 84.3091C68.9649 84.2412 69.1409 84.2063 69.3187 84.2065H107.019C107.197 84.2063 107.373 84.2412 107.537 84.3091C107.702 84.377 107.851 84.4766 107.977 84.6022C108.102 84.7278 108.202 84.877 108.27 85.0412C108.338 85.2054 108.373 85.3815 108.373 85.5592C108.373 85.737 108.338 85.913 108.27 86.0772C108.202 86.2415 108.102 86.3906 107.977 86.5163C107.851 86.6419 107.702 86.7415 107.537 86.8094C107.373 86.8773 107.197 86.9121 107.019 86.9119Z" fill="#E6E6E6"/>
<path d="M62.1234 68.5248H50.7562C50.5842 68.5246 50.4193 68.4562 50.2977 68.3346C50.1761 68.213 50.1077 68.0481 50.1075 67.8761V57.7577C50.1077 57.5858 50.1761 57.4209 50.2977 57.2993C50.4193 57.1777 50.5842 57.1093 50.7562 57.1091H62.1234C62.2953 57.1093 62.4602 57.1777 62.5818 57.2993C62.7034 57.4209 62.7718 57.5858 62.772 57.7577V67.8761C62.7718 68.0481 62.7034 68.213 62.5818 68.3346C62.4602 68.4562 62.2953 68.5246 62.1234 68.5248Z" fill="#E6E6E6"/>
<path d="M62.1234 88.9845H50.7562C50.5842 88.9843 50.4193 88.9159 50.2977 88.7943C50.1761 88.6727 50.1077 88.5078 50.1075 88.3359V78.2175C50.1077 78.0455 50.1761 77.8806 50.2977 77.759C50.4193 77.6374 50.5842 77.569 50.7562 77.5688H62.1234C62.2953 77.569 62.4602 77.6374 62.5818 77.759C62.7034 77.8806 62.7718 78.0455 62.772 78.2175V88.3359C62.7718 88.5078 62.7034 88.6727 62.5818 88.7943C62.4602 88.9159 62.2953 88.9843 62.1234 88.9845Z" fill="#E6E6E6"/>
<path d="M101.475 39.1118H77.7936C77.4348 39.1118 77.0908 38.9693 76.8371 38.7156C76.5834 38.4619 76.4409 38.1179 76.4409 37.7591C76.4409 37.4004 76.5834 37.0563 76.8371 36.8026C77.0908 36.5489 77.4348 36.4064 77.7936 36.4064H101.475C101.834 36.4064 102.178 36.5489 102.431 36.8026C102.685 37.0563 102.828 37.4004 102.828 37.7591C102.828 38.1179 102.685 38.4619 102.431 38.7156C102.178 38.9693 101.834 39.1118 101.475 39.1118Z" fill="#CCCCCC"/>
<path d="M107.055 43.6771H77.7936C77.616 43.6771 77.4401 43.6421 77.276 43.5741C77.1118 43.5061 76.9627 43.4065 76.8371 43.2809C76.7115 43.1553 76.6119 43.0061 76.5439 42.842C76.4759 42.6779 76.4409 42.502 76.4409 42.3244C76.4409 42.1467 76.4759 41.9708 76.5439 41.8067C76.6119 41.6426 76.7115 41.4935 76.8371 41.3679C76.9627 41.2423 77.1118 41.1426 77.276 41.0746C77.4401 41.0067 77.616 40.9717 77.7936 40.9717H107.055C107.413 40.9717 107.758 41.1142 108.011 41.3679C108.265 41.6215 108.407 41.9656 108.407 42.3244C108.407 42.6831 108.265 43.0272 108.011 43.2809C107.758 43.5345 107.413 43.6771 107.055 43.6771Z" fill="#CCCCCC"/>
<path d="M72.5526 49.2095H50.7205C50.5485 49.2094 50.3837 49.141 50.2621 49.0194C50.1405 48.8978 50.0721 48.7329 50.0719 48.5609V31.5222C50.0721 31.3502 50.1405 31.1854 50.2621 31.0638C50.3837 30.9422 50.5485 30.8738 50.7205 30.8736H72.5526C72.7246 30.8738 72.8894 30.9422 73.011 31.0638C73.1326 31.1854 73.201 31.3502 73.2012 31.5222V48.5609C73.201 48.7329 73.1326 48.8978 73.011 49.0194C72.8894 49.141 72.7246 49.2094 72.5526 49.2095Z" fill="#70B6F6"/>
</g>
<defs>
<clipPath id="clip0_504_151184">
<rect width="132" height="118.469" fill="white" transform="translate(0.5)"/>
</clipPath>
</defs>
</svg>
